<svg id="icon" height="32" viewBox="0 0 32 32" width="32" xmlns="http://www.w3.org/2000/svg"><path d="m16.7460771 10.4361592c-.2654841 2.5764212-.5331764 5.1523682-.8030771 7.7278408l3.6359013 3.643565c.0807104.0808731.1865063.2817814.2219478.3902112.5645639 2.2017018 1.1270172 4.4052181 1.6873599 6.6105488.1161037.454858-.1585109.9177138-.6133688 1.0338175-.4198689.1071727-.8721069-.1260505-1.0338175-.6133688-.5451814-2.1270231-1.0885223-4.2556143-1.6300227-6.3857737l-3.588217-3.5949534c-.2510842-.2515901-.4323021-.6495136-.3872281-1.093043.2161025-2.10794.4349175-4.2152745.6564451-6.3220036l-3.058 1.597-.4781173 2.6874729c-.0760096.4266127-.5593053.7637347-.985918.6877251-.42661272-.0760096-.7669689-.492732-.68772506-.985918.18197394-1.033529.36596266-2.0661876.55196626-3.0979758.0395928-.2222195.238468-.5091171.443367-.604358 1.6093925-.8431425 3.2192572-1.6838153 4.829594-2.52201812.5672848-.29623661 1.290119.12680315 1.2389102.84123112zm-2.8077372 10.5306803c.3957583.1764973.611894.6268283.4300911 1.1225069-1.0800531 2.4271443-2.1615973 4.8522812-3.2446326 7.2754109-.1912053.428738-.6937688.6212964-1.1225069.430091-.39575818-.1764972-.63157757-.673876-.43009099-1.1225069 1.08005309-2.4271443 2.16159729-4.8522812 3.24463259-7.2754108.1912053-.4287381.6937688-.6212964 1.1225068-.4300911zm5.1099821-8.7546524c.2929625.3146551.5838551.6305927.872678.9478129l2.1003504 1.0659221c1.0489622.5319144.2623357 1.9556411-.7688464 1.5162042-.7460239-.3759233-1.4907631-.7535704-2.2342179-1.1329413-.0602901-.0305723-.2066741-.1455122-.2406484-.1820939-.3281143-.3532944-.6546006-.7075903-.979459-1.0628876-.3181205-.3452175-.2961541-.8829593.0490635-1.2010798.3164494-.2916105.8230049-.3187634 1.2010798.0490634zm-2.6184561-10.05554259c1.5703579 0 2.8433845 1.27302658 2.8433845 2.84338445s-1.2730266 2.84338445-2.8433845 2.84338445c-1.5703578 0-2.8433844-1.27302658-2.8433844-2.84338445s1.2730266-2.84338445 2.8433844-2.84338445zm0 1.7c-.6314738 0-1.1433844.51191066-1.1433844 1.14338445s.5119106 1.14338445 1.1433844 1.14338445 1.1433845-.51191066 1.1433845-1.14338445-.5119107-1.14338445-1.1433845-1.14338445z" fill="var(--db-icon-color, currentColor)" fill-rule="evenodd"/></svg>
